<svg width="1000" height="250" viewBox="0 0 1000 250" fill="none" xmlns="http://www.w3.org/2000/svg">
<rect width="1000" height="250" fill="black"/>
<path d="M10 35H110L85 215H10V35Z" fill="#89DDFF"/>
<path d="M915 35H990V215H890L915 35Z" fill="#89DDFF"/>
<path d="M148.606 161V88.2727H177.299C182.815 88.2727 187.515 89.3262 191.397 91.4332C195.28 93.5166 198.239 96.4167 200.275 100.134C202.335 103.827 203.365 108.088 203.365 112.918C203.365 117.747 202.323 122.009 200.24 125.702C198.156 129.395 195.138 132.271 191.184 134.331C187.254 136.391 182.496 137.42 176.909 137.42H158.62V125.098H174.423C177.382 125.098 179.821 124.589 181.738 123.571C183.68 122.529 185.124 121.097 186.071 119.274C187.041 117.428 187.527 115.309 187.527 112.918C187.527 110.503 187.041 108.396 186.071 106.597C185.124 104.774 183.68 103.365 181.738 102.371C179.797 101.353 177.335 100.844 174.352 100.844H163.983V161H148.606ZM213.352 161V88.2727H262.358V100.95H228.729V118.28H259.837V130.957H228.729V148.322H262.5V161H213.352ZM287.118 161H270.641L295.748 88.2727H315.563L340.634 161H324.157L305.939 104.892H305.371L287.118 161ZM286.088 132.413H325.009V144.416H286.088V132.413ZM349.387 161V88.2727H378.081C383.573 88.2727 388.261 89.2552 392.143 91.2202C396.049 93.1615 399.02 95.9195 401.056 99.4943C403.116 103.045 404.146 107.224 404.146 112.03C404.146 116.859 403.104 121.014 401.021 124.494C398.938 127.951 395.919 130.602 391.966 132.449C388.036 134.295 383.277 135.219 377.69 135.219H358.478V122.861H375.204C378.14 122.861 380.578 122.458 382.52 121.653C384.461 120.848 385.905 119.641 386.852 118.031C387.823 116.421 388.308 114.421 388.308 112.03C388.308 109.615 387.823 107.579 386.852 105.922C385.905 104.265 384.449 103.01 382.484 102.158C380.543 101.282 378.092 100.844 375.133 100.844H364.764V161H349.387ZM388.663 127.903L406.738 161H389.764L372.079 127.903H388.663ZM415.012 161V88.2727H430.389V148.322H461.568V161H415.012ZM471.751 161V88.2727H519.904V100.95H487.127V118.28H516.708V130.957H487.127V161H471.751ZM530.247 161V88.2727H578.4V100.95H545.623V118.28H575.204V130.957H545.623V161H530.247ZM588.743 161V88.2727H617.436C622.952 88.2727 627.652 89.3262 631.534 91.4332C635.417 93.5166 638.376 96.4167 640.412 100.134C642.472 103.827 643.501 108.088 643.501 112.918C643.501 117.747 642.46 122.009 640.376 125.702C638.293 129.395 635.275 132.271 631.321 134.331C627.391 136.391 622.633 137.42 617.045 137.42H598.757V125.098H614.56C617.519 125.098 619.957 124.589 621.875 123.571C623.816 122.529 625.26 121.097 626.207 119.274C627.178 117.428 627.663 115.309 627.663 112.918C627.663 110.503 627.178 108.396 626.207 106.597C625.26 104.774 623.816 103.365 621.875 102.371C619.934 101.353 617.472 100.844 614.489 100.844H604.119V161H588.743ZM720.321 124.636C720.321 132.567 718.818 139.314 715.811 144.878C712.828 150.441 708.757 154.691 703.596 157.626C698.458 160.538 692.682 161.994 686.266 161.994C679.803 161.994 674.003 160.527 668.865 157.591C663.728 154.655 659.668 150.406 656.685 144.842C653.702 139.279 652.211 132.544 652.211 124.636C652.211 116.705 653.702 109.958 656.685 104.395C659.668 98.8314 663.728 94.5937 668.865 91.6818C674.003 88.7462 679.803 87.2784 686.266 87.2784C692.682 87.2784 698.458 88.7462 703.596 91.6818C708.757 94.5937 712.828 98.8314 715.811 104.395C718.818 109.958 720.321 116.705 720.321 124.636ZM704.732 124.636C704.732 119.499 703.962 115.167 702.424 111.639C700.908 108.112 698.766 105.437 695.996 103.614C693.226 101.791 689.983 100.879 686.266 100.879C682.549 100.879 679.306 101.791 676.536 103.614C673.766 105.437 671.612 108.112 670.073 111.639C668.558 115.167 667.8 119.499 667.8 124.636C667.8 129.774 668.558 134.106 670.073 137.634C671.612 141.161 673.766 143.836 676.536 145.659C679.306 147.482 682.549 148.393 686.266 148.393C689.983 148.393 693.226 147.482 695.996 145.659C698.766 143.836 700.908 141.161 702.424 137.634C703.962 134.106 704.732 129.774 704.732 124.636ZM771.165 109.189C770.881 106.324 769.661 104.099 767.507 102.513C765.353 100.927 762.429 100.134 758.736 100.134C756.226 100.134 754.107 100.489 752.379 101.199C750.651 101.885 749.325 102.844 748.402 104.075C747.502 105.306 747.053 106.703 747.053 108.266C747.005 109.568 747.277 110.704 747.869 111.675C748.485 112.645 749.325 113.486 750.391 114.196C751.456 114.883 752.687 115.486 754.084 116.007C755.481 116.504 756.972 116.93 758.558 117.286L765.092 118.848C768.265 119.558 771.177 120.505 773.828 121.689C776.48 122.873 778.776 124.329 780.717 126.057C782.659 127.785 784.162 129.821 785.227 132.165C786.316 134.509 786.873 137.196 786.896 140.226C786.873 144.677 785.736 148.536 783.487 151.803C781.262 155.046 778.042 157.567 773.828 159.366C769.638 161.142 764.583 162.03 758.665 162.03C752.794 162.03 747.68 161.13 743.324 159.331C738.991 157.532 735.606 154.868 733.168 151.341C730.753 147.79 729.486 143.398 729.368 138.166H744.247C744.413 140.605 745.111 142.641 746.342 144.274C747.597 145.884 749.266 147.103 751.349 147.932C753.456 148.737 755.836 149.139 758.487 149.139C761.091 149.139 763.352 148.76 765.27 148.003C767.211 147.245 768.714 146.192 769.78 144.842C770.845 143.493 771.378 141.942 771.378 140.19C771.378 138.557 770.893 137.184 769.922 136.071C768.975 134.958 767.578 134.011 765.732 133.23C763.909 132.449 761.671 131.739 759.02 131.099L751.101 129.111C744.969 127.619 740.128 125.287 736.577 122.115C733.026 118.943 731.262 114.67 731.286 109.295C731.262 104.892 732.434 101.045 734.801 97.7543C737.192 94.4635 740.471 91.8949 744.638 90.0483C748.804 88.2017 753.539 87.2784 758.842 87.2784C764.24 87.2784 768.951 88.2017 772.976 90.0483C777.024 91.8949 780.173 94.4635 782.422 97.7543C784.671 101.045 785.831 104.857 785.902 109.189H771.165ZM794.469 100.95V88.2727H854.199V100.95H831.934V161H816.735V100.95H794.469Z" fill="white"/>
</svg>
