<svg width="1000" height="250" viewBox="0 0 1000 250" fill="none" xmlns="http://www.w3.org/2000/svg">
<path d="M10 35H110L85 215H10V35Z" fill="#89DDFF"/>
<path d="M915 35H990V215H890L915 35Z" fill="#89DDFF"/>
<path d="M130.149 161V88.2727H145.526V118.28H176.74V88.2727H192.081V161H176.74V130.957H145.526V161H130.149ZM200.497 88.2727H217.72L234.304 119.594H235.014L251.598 88.2727H268.821L242.294 135.29V161H227.024V135.29L200.497 88.2727ZM277.219 161V88.2727H326.225V100.95H292.596V118.28H323.704V130.957H292.596V148.322H326.367V161H277.219ZM405.282 124.636C405.282 132.567 403.779 139.314 400.772 144.878C397.789 150.441 393.717 154.691 388.556 157.626C383.419 160.538 377.643 161.994 371.227 161.994C364.764 161.994 358.964 160.527 353.826 157.591C348.689 154.655 344.629 150.406 341.646 144.842C338.663 139.279 337.172 132.544 337.172 124.636C337.172 116.705 338.663 109.958 341.646 104.395C344.629 98.8314 348.689 94.5937 353.826 91.6818C358.964 88.7462 364.764 87.2784 371.227 87.2784C377.643 87.2784 383.419 88.7462 388.556 91.6818C393.717 94.5937 397.789 98.8314 400.772 104.395C403.779 109.958 405.282 116.705 405.282 124.636ZM389.693 124.636C389.693 119.499 388.923 115.167 387.385 111.639C385.869 108.112 383.727 105.437 380.957 103.614C378.187 101.791 374.944 100.879 371.227 100.879C367.51 100.879 364.267 101.791 361.497 103.614C358.727 105.437 356.573 108.112 355.034 111.639C353.519 115.167 352.761 119.499 352.761 124.636C352.761 129.774 353.519 134.106 355.034 137.634C356.573 141.161 358.727 143.836 361.497 145.659C364.267 147.482 367.51 148.393 371.227 148.393C374.944 148.393 378.187 147.482 380.957 145.659C383.727 143.836 385.869 141.161 387.385 137.634C388.923 134.106 389.693 129.774 389.693 124.636ZM477.504 88.2727V161H464.222L432.582 115.226H432.049V161H416.673V88.2727H430.167L461.559 134.011H462.198V88.2727H477.504ZM490.208 161V88.2727H538.361V100.95H505.584V118.28H535.165V130.957H505.584V161H490.208ZM548.704 161V88.2727H596.857V100.95H564.08V118.28H593.661V130.957H564.08V161H548.704ZM607.2 161V88.2727H635.893C641.409 88.2727 646.109 89.3262 649.991 91.4332C653.874 93.5166 656.833 96.4167 658.869 100.134C660.929 103.827 661.958 108.088 661.958 112.918C661.958 117.747 660.917 122.009 658.833 125.702C656.75 129.395 653.732 132.271 649.778 134.331C645.848 136.391 641.09 137.42 635.502 137.42H617.214V125.098H633.017C635.976 125.098 638.414 124.589 640.332 123.571C642.273 122.529 643.717 121.097 644.664 119.274C645.635 117.428 646.12 115.309 646.12 112.918C646.12 110.503 645.635 108.396 644.664 106.597C643.717 104.774 642.273 103.365 640.332 102.371C638.391 101.353 635.929 100.844 632.946 100.844H622.576V161H607.2ZM738.778 124.636C738.778 132.567 737.275 139.314 734.268 144.878C731.286 150.441 727.214 154.691 722.053 157.626C716.915 160.538 711.139 161.994 704.723 161.994C698.26 161.994 692.46 160.527 687.322 157.591C682.185 154.655 678.125 150.406 675.142 144.842C672.159 139.279 670.668 132.544 670.668 124.636C670.668 116.705 672.159 109.958 675.142 104.395C678.125 98.8314 682.185 94.5937 687.322 91.6818C692.46 88.7462 698.26 87.2784 704.723 87.2784C711.139 87.2784 716.915 88.7462 722.053 91.6818C727.214 94.5937 731.286 98.8314 734.268 104.395C737.275 109.958 738.778 116.705 738.778 124.636ZM723.189 124.636C723.189 119.499 722.42 115.167 720.881 111.639C719.366 108.112 717.223 105.437 714.453 103.614C711.683 101.791 708.44 100.879 704.723 100.879C701.006 100.879 697.763 101.791 694.993 103.614C692.223 105.437 690.069 108.112 688.53 111.639C687.015 115.167 686.257 119.499 686.257 124.636C686.257 129.774 687.015 134.106 688.53 137.634C690.069 141.161 692.223 143.836 694.993 145.659C697.763 147.482 701.006 148.393 704.723 148.393C708.44 148.393 711.683 147.482 714.453 145.659C717.223 143.836 719.366 141.161 720.881 137.634C722.42 134.106 723.189 129.774 723.189 124.636ZM789.622 109.189C789.338 106.324 788.118 104.099 785.964 102.513C783.81 100.927 780.886 100.134 777.193 100.134C774.683 100.134 772.565 100.489 770.836 101.199C769.108 101.885 767.782 102.844 766.859 104.075C765.959 105.306 765.51 106.703 765.51 108.266C765.462 109.568 765.734 110.704 766.326 111.675C766.942 112.645 767.782 113.486 768.848 114.196C769.913 114.883 771.144 115.486 772.541 116.007C773.938 116.504 775.429 116.93 777.015 117.286L783.549 118.848C786.722 119.558 789.634 120.505 792.285 121.689C794.937 122.873 797.233 124.329 799.174 126.057C801.116 127.785 802.619 129.821 803.684 132.165C804.773 134.509 805.33 137.196 805.353 140.226C805.33 144.677 804.193 148.536 801.944 151.803C799.719 155.046 796.499 157.567 792.285 159.366C788.095 161.142 783.04 162.03 777.122 162.03C771.251 162.03 766.137 161.13 761.781 159.331C757.449 157.532 754.063 154.868 751.625 151.341C749.21 147.79 747.943 143.398 747.825 138.166H762.704C762.87 140.605 763.568 142.641 764.799 144.274C766.054 145.884 767.723 147.103 769.806 147.932C771.913 148.737 774.293 149.139 776.944 149.139C779.548 149.139 781.809 148.76 783.727 148.003C785.668 147.245 787.172 146.192 788.237 144.842C789.302 143.493 789.835 141.942 789.835 140.19C789.835 138.557 789.35 137.184 788.379 136.071C787.432 134.958 786.035 134.011 784.189 133.23C782.366 132.449 780.128 131.739 777.477 131.099L769.558 129.111C763.426 127.619 758.585 125.287 755.034 122.115C751.483 118.943 749.719 114.67 749.743 109.295C749.719 104.892 750.891 101.045 753.258 97.7543C755.649 94.4635 758.928 91.8949 763.095 90.0483C767.261 88.2017 771.996 87.2784 777.299 87.2784C782.697 87.2784 787.408 88.2017 791.433 90.0483C795.481 91.8949 798.63 94.4635 800.879 97.7543C803.128 101.045 804.288 104.857 804.359 109.189H789.622ZM812.926 100.95V88.2727H872.656V100.95H850.391V161H835.192V100.95H812.926Z" fill="white"/>
</svg>
